{
  "source": "C:\\Users\\Peter\\Desktop\\stuff\\MIUN\\quantitative_research\\video_compression\\videos\\BVI-HD\\BVI-HD_CDVL_videos\\ORIG\\Typing_1920x1080_60fps.mp4",
  "output": "C:\\Users\\Peter\\Desktop\\stuff\\MIUN\\quantitative_research\\video_compression\\compressed_videos\\BVI-HD\\h264\\1.5\\Typing_1920x1080_60fps_h264.mp4",
  "codec": "h264",
  "ok": "Input #0, mov,mp4,m4a,3gp,3g2,mj2, from 'C:\\Users\\Peter\\Desktop\\stuff\\MIUN\\quantitative_research\\video_compression\\videos\\BVI-HD\\BVI-HD_CDVL_videos\\ORIG\\Typing_1920x1080_60fps.mp4':\n  Metadata:\n    major_brand     : isom\n    minor_version   : 512\n    compatible_brands: isomiso2avc1mp41\n    encoder         : Lavf54.28.101\n  Duration: 00:00:05.00, start: 0.000000, bitrate: 203453 kb/s\n  Stream #0:0[0x1](und): Video: h264 (High 4:4:4 Predictive) (avc1 / 0x31637661), yuv420p(progressive), 1920x1080, 203448 kb/s, 60 fps, 60 tbr, 60 tbn (default)\n    Metadata:\n      handler_name    : VideoHandler\n      vendor_id       : [0][0][0][0]\n[out#0/mp4 @ 000002722ac39b40] Codec AVOption b:a (set bitrate (in bits/s)) has not been used for any stream. The most likely reason is either wrong type (e.g. a video option with no video streams) or that it is a private option of some decoder which was not actually used for any stream.\nStream mapping:\n  Stream #0:0 -> #0:0 (h264 (native) -> h264 (libx264))\nPress [q] to stop, [?] for help\n[libx264 @ 000002722b194ec0] using cpu capabilities: MMX2 SSE2Fast SSSE3 SSE4.2 AVX FMA3 BMI2 AVX2\n[libx264 @ 000002722b194ec0] profile High, level 5.0, 4:2:0, 8-bit\n[libx264 @ 000002722b194ec0] 264 - core 165 r3222 b35605a - H.264/MPEG-4 AVC codec - Copyleft 2003-2025 - http://www.videolan.org/x264.html - options: cabac=1 ref=5 deblock=1:0:0 analyse=0x3:0x113 me=hex subme=8 psy=1 psy_rd=1.00:0.00 mixed_ref=1 me_range=16 chroma_me=1 trellis=2 8x8dct=1 cqm=0 deadzone=21,11 fast_pskip=1 chroma_qp_offset=-2 threads=18 lookahead_threads=3 sliced_threads=0 nr=0 decimate=1 interlaced=0 bluray_compat=0 constrained_intra=0 bframes=3 b_pyramid=2 b_adapt=1 b_bias=0 direct=3 weightb=1 open_gop=0 weightp=2 keyint=250 keyint_min=25 scenecut=40 intra_refresh=0 rc_lookahead=50 rc=cbr mbtree=1 bitrate=1500 ratetol=1.0 qcomp=0.60 qpmin=0 qpmax=69 qpstep=4 vbv_maxrate=1500 vbv_bufsize=1500 nal_hrd=none filler=0 ip_ratio=1.40 aq=1:1.00\nOutput #0, mp4, to 'C:\\Users\\Peter\\Desktop\\stuff\\MIUN\\quantitative_research\\video_compression\\compressed_videos\\BVI-HD\\h264\\1.5\\Typing_1920x1080_60fps_h264.mp4':\n  Metadata:\n    major_brand     : isom\n    minor_version   : 512\n    compatible_brands: isomiso2avc1mp41\n    encoder         : Lavf62.3.100\n  Stream #0:0(und): Video: h264 (avc1 / 0x31637661), yuv420p(tv, progressive), 1920x1080, q=2-31, 1500 kb/s, 60 fps, 15360 tbn (default)\n    Metadata:\n      encoder         : Lavc62.11.100 libx264\n      handler_name    : VideoHandler\n      vendor_id       : [0][0][0][0]\n    Side data:\n      cpb: bitrate max/min/avg: 1500000/0/1500000 buffer size: 1500000 vbv_delay: N/A\nframe=    0 fps=0.0 q=0.0 size=       0KiB time=N/A bitrate=N/A speed=N/A elapsed=0:00:00.51    \nframe=    0 fps=0.0 q=0.0 size=       0KiB time=N/A bitrate=N/A speed=N/A elapsed=0:00:01.11    \nframe=   28 fps= 17 q=39.0 size=       0KiB time=00:00:00.36 bitrate=   1.0kbits/s speed=0.223x elapsed=0:00:01.64    \nframe=   60 fps= 27 q=39.0 size=       0KiB time=00:00:00.90 bitrate=   0.4kbits/s speed=0.403x elapsed=0:00:02.23    \nframe=   88 fps= 32 q=38.0 size=       0KiB time=00:00:01.41 bitrate=   0.3kbits/s speed=0.51x elapsed=0:00:02.77    \nframe=  124 fps= 37 q=38.0 size=     256KiB time=00:00:01.96 bitrate=1066.5kbits/s speed=0.59x elapsed=0:00:03.33    \nframe=  156 fps= 40 q=38.0 size=     256KiB time=00:00:02.50 bitrate= 839.0kbits/s speed=0.637x elapsed=0:00:03.92    \nframe=  186 fps= 41 q=38.0 size=     256KiB time=00:00:03.03 bitrate= 691.5kbits/s speed=0.671x elapsed=0:00:04.52    \nframe=  228 fps= 45 q=38.0 size=     256KiB time=00:00:03.70 bitrate= 566.9kbits/s speed=0.723x elapsed=0:00:05.11    \nframe=  256 fps= 45 q=38.0 size=     512KiB time=00:00:04.20 bitrate= 998.7kbits/s speed=0.74x elapsed=0:00:05.67    \n[mp4 @ 000002722b195c00] Starting second pass: moving the moov atom to the beginning of the file\n[out#0/mp4 @ 000002722ac39b40] video:690KiB audio:0KiB subtitle:0KiB other streams:0KiB global headers:0KiB muxing overhead: 0.630414%\nframe=  300 fps= 50 q=-1.0 Lsize=     694KiB time=00:00:04.96 bitrate=1145.5kbits/s speed=0.822x elapsed=0:00:06.04    \n[libx264 @ 000002722b194ec0] frame I:2     Avg QP:33.89  size: 35636\n[libx264 @ 000002722b194ec0] frame P:76    Avg QP:32.35  size:  4413\n[libx264 @ 000002722b194ec0] frame B:222   Avg QP:38.16  size:  1348\n[libx264 @ 000002722b194ec0] consecutive B-frames:  1.3%  0.0%  0.0% 98.7%\n[libx264 @ 000002722b194ec0] mb I  I16..4: 38.3% 58.9%  2.7%\n[libx264 @ 000002722b194ec0] mb P  I16..4:  4.3%  2.4%  0.0%  P16..4: 14.6%  0.6%  0.9%  0.0%  0.0%    skip:77.1%\n[libx264 @ 000002722b194ec0] mb B  I16..4:  0.2%  0.1%  0.0%  B16..8: 10.9%  0.4%  0.0%  direct: 0.1%  skip:88.2%  L0:44.3% L1:54.7% BI: 1.0%\n[libx264 @ 000002722b194ec0] 8x8 transform intra:42.6% inter:95.0%\n[libx264 @ 000002722b194ec0] direct mvs  spatial:95.5% temporal:4.5%\n[libx264 @ 000002722b194ec0] coded y,uvDC,uvAC intra: 15.9% 32.2% 3.9% inter: 0.7% 1.2% 0.0%\n[libx264 @ 000002722b194ec0] i16 v,h,dc,p: 15% 35%  9% 41%\n[libx264 @ 000002722b194ec0] i8 v,h,dc,ddl,ddr,vr,hd,vl,hu:  6% 15% 25%  5% 13%  7% 12%  5% 12%\n[libx264 @ 000002722b194ec0] i4 v,h,dc,ddl,ddr,vr,hd,vl,hu:  6% 14%  9%  6% 25% 10% 13%  5% 12%\n[libx264 @ 000002722b194ec0] i8c dc,h,v,p: 71% 22%  5%  3%\n[libx264 @ 000002722b194ec0] Weighted P-Frames: Y:0.0% UV:0.0%\n[libx264 @ 000002722b194ec0] ref P L0: 42.4% 11.2% 18.2% 10.8% 17.3%\n[libx264 @ 000002722b194ec0] ref B L0: 74.7% 13.3%  8.7%  3.3%\n[libx264 @ 000002722b194ec0] ref B L1: 92.3%  7.7%\n[libx264 @ 000002722b194ec0] kb/s:1129.47\n",
  "seconds": 6.2710654735565186,
  "probe_out": {}
}